<?xml version="1.0" encoding="UTF-8"?>
<svg xmlns="http://www.w3.org/2000/svg" viewBox="0 0 2106.234 2078">
  <defs>
    <style>
      .cls-1 {
        fill: #08558c;
      }
    </style>
  </defs>
  <g id="cricle">
    <path class="cls-1" d="M1053,275c99.786,0,196.56,19.532,287.636,58.054,43.778,18.517,86.006,41.438,125.51,68.127,39.142,26.444,75.951,56.815,109.405,90.268,33.454,33.454,63.824,70.263,90.268,109.405,26.689,39.505,49.61,81.732,68.127,125.51,38.522,91.075,58.054,187.85,58.054,287.636s-19.532,196.56-58.054,287.636c-18.517,43.778-41.438,86.006-68.127,125.51-26.444,39.142-56.815,75.951-90.268,109.405-33.454,33.454-70.263,63.824-109.405,90.268-39.505,26.689-81.733,49.61-125.51,68.127-91.075,38.522-187.85,58.054-287.636,58.054s-196.56-19.532-287.636-58.054c-43.778-18.517-86.006-41.438-125.51-68.127-39.142-26.444-75.951-56.815-109.405-90.268-33.454-33.454-63.824-70.263-90.268-109.405-26.689-39.505-49.61-81.733-68.127-125.51-38.522-91.075-58.054-187.85-58.054-287.636,0-86.395,14.757-170.992,43.86-251.441,28.127-77.749,68.955-149.858,121.347-214.319,78.829-96.965,181.411-172.879,296.656-219.534,88.028-35.637,181.27-53.706,277.138-53.706m0-50c-104.64,0-204.53,20.37-295.9,57.36-124.52,50.41-233.24,131.69-316.69,234.34-110.3,135.71-176.41,308.79-176.41,497.3,0,435.75,353.25,789,789,789s789-353.25,789-789S1488.75,225,1053,225h0Z"/>
  </g>
  <g id="ice_cube_chamber" data-name="ice cube chamber">
    <g>
      <path class="cls-1" d="M1568.311,584.539c-.347-61.434-45.736-110.329-102.496-110.392-274.765-.253-549.561-.095-824.326-.126-14.529,0-28.206,3.664-40.967,10.076-39.988,20.057-60.392,53.191-60.519,97.474-.379,108.181-.284,216.363-.253,324.544,.032,36.608,.063,73.216,.063,109.824,0,39.198,.032,78.396,.063,117.594v9.728c.063,37.398,.095,74.795,.095,112.193,0,64.435-.095,128.838-.505,193.274-.316,51.548,42.325,110.108,107.802,107.771,52.59-1.895,105.276-.379,157.929-.379,218.447,0,436.895-.221,655.374,.19,42.072,.063,72.584-18.162,93.368-53.538,11.434-19.457,14.624-41.283,14.624-63.709-.063-189.546-.032-379.093-.032-568.639,0-95.294,.316-190.589-.221-285.883Zm-820.252,224.701c32.976-27.543,66.299-54.675,99.243-82.281,14.403-12.097,29.533-11.371,45.61-4.675,17.656,7.328,34.555,16.741,53.948,21.573-3.506-57.96-.158-64.467,16.046-77.29,31.744-25.079,62.477-51.422,93.399-77.512,12.887-10.897,26.88-11.245,41.283-4.896,41.725,18.446,83.165,37.619,124.953,55.939,16.235,7.107,22.805,18.256,21.415,35.913-1.958,24.068-2.527,48.263-3.664,71.637-4.612,4.738-9.286,6.475-15.351,6.854-2.59-12.792,.095-25.205,.979-37.587,.411-5.78,.884-11.561,1.863-17.246,4.517-25.806-3.664-42.325-29.975-52.18-34.808-13.045-68.067-30.228-102.18-45.136-12.413-5.401-24.289-4.011-35.281,5.243-28.174,23.658-56.602,47.031-85.25,70.089-9.918,7.96-14.561,17.12-13.14,30.007,1.263,11.466,1.074,23.058,1.516,34.618-1.421,7.202,1.327,11.687,8.181,14.719,13.929,6.191,27.448,13.298,41.314,19.583,22.9,10.392,28.143,18.794,25.048,44.504-1.958,16.204-3.253,32.344-2.558,49.148,19.994,4.39,33.039,21.32,53.822,28.743-.979-23.563,16.519-33.323,30.48-44.883,.221-7.075-3.79-4.769-5.843-10.297-3.159-60.013-3.159-56.854-26.564-70.436-26.627-15.446-52.496-32.186-80.26-49.369,7.581-5.591,12.35-2.748,17.467-.379,26.216,12.097,52.622,23.816,78.775,36.103,9.476,4.454,16.677,2.621,24.226-4.327,21.952-20.183,44.41-39.861,69.047-61.877-.632,11.56-6.064,17.088-10.708,22.773-11.971,14.656-22.868,30.512-36.545,43.367-23.405,21.952-22.205,50.79-25.774,78.554-.758,5.812,1.769,9.002,7.802,8.97,1.327-1.074,65.888-58.939,72.868-59.855,0,0,25.269-21.068,42.293-14.056,48.895,20.089,97.158,41.757,144.505,65.319,3.632,1.8,15.066,13.803,13.677,18.036,1.737,6.665-5.591,84.429-6.064,114.214-.032,2.937,.126,5.875,.379,8.813,1.927,21.131-1.169,40.524-20.657,54.201l-86.829,100.19c-.916,1.042-1.674,2.211-2.432,3.348-8.275,12.918-20.025,8.781-30.038,2.811-27.89-16.614-55.212-34.302-82.502-51.958-14.498-9.413-27.701-21.163-42.862-29.248-22.647-12.097-28.08-32.186-30.575-54.801-3.064-27.606-6.507-55.18-9.886-83.797-10.487-2.59-20.183-7.233-29.059-13.708-8.844-6.475-18.225-12.287-29.47-19.741-1.895,16.361-3.664,31.586-5.496,46.779-1.105,9.286-.853,19.236-10.992,24.511-1.421,1.737-79.249,92.325-80.354,93.589-15.382,28.553-61.75,3.506-62.35,2.843-4.201,.79-72.016-47.158-72.458-47.947l-.032-.031c-1.453-.537-40.872-28.901-41.914-29.849-10.897-8.497-11.181-36.671-11.434-38.661-3.159-13.613-13.487-87.493-13.74-107.929-.126-9.57,5.654-15.666,12.097-21.036Zm371.512,389.011c-18.446,52.622-42.23,103.475-65.288,156.16-25.427-50.916-45.989-103.507-67.057-155.655,11.908-6.349,22.205-.632,32.976-7.36v-159.287h67.815v158.245c10.076,8.434,20.657,1.927,31.554,7.896Zm304.203,226.439c-.442,28.364-18.414,46.494-46.526,46.526-215.857,.095-431.715,.126-647.572-.032-26.658,0-44.441-16.456-44.694-42.641-.695-64.246-.347-128.491-.379-192.737,0-4.201,0-8.497,4.517-12.887h55.938c5.591,5.875,3.759,12.508,3.759,18.604,.158,40.019-.031,80.039,.158,120.058,.126,26.279,14.908,41.125,40.967,41.125,175.838,.095,351.676,.095,527.515,.032,26.595-.032,40.746-14.308,41.156-42.767,.569-38.945,.158-77.922,.221-116.899,.032-5.685-.916-11.56,2.906-18.92,19.52-3.948,39.735-3.822,62.129,.79,0,45.073,.032,87.651,0,130.26,0,23.152,.284,46.337-.095,69.489Z"/>
      <path class="cls-1" d="M1210.38,802.639v.032h-.031s0-.032,.031-.032Z"/>
      <path class="cls-1" d="M1370.994,852.513c-38.977-19.394-79.154-36.04-118.731-54.075-1.327-.6-2.622-1.106-3.917-1.548-3.222-1.074-6.38-1.643-9.507-1.8-5.812-.284-24.637,5.717-28.459,7.549v.032c-.253,1.611-73.5,59.413-95.831,83.924-3.695,4.043-5.338,9.539-4.454,14.972,2.085,12.634,11.908,81.207,11.055,97.221,.316,3.727,.821,9.697,1.137,13.424,4.927,17.972,17.562,29.438,33.481,39.387,29.691,18.478,58.339,38.63,87.556,57.897,27.417,18.067,29.47,17.72,52.559-5.18,1.169-1.169,2.622-2.053,4.043-2.937,1.358-.821,2.558-1.832,3.601-3.032,.221-.221,.442-.474,.663-.726,.663-.758,1.264-1.579,1.769-2.464,11.813-19.962,28.964-35.597,43.778-53.033,17.593-20.783,31.333-40.809,31.302-70.815-.063-31.207,5.085-62.603,5.18-94.157,.031-12.034-4.296-19.173-15.224-24.637Zm-213.773,66.741c2.021-2.906,3.601-2.906,4.927,.569-2.022,2.843-3.601,2.874-4.927-.569Zm126.627,78.206s-5.275,73.279-12.476,103.854c-.474,1.99-3.38,1.737-3.506-.316-1.2-23.595-3.253-80.512-2.906-85.408,1.263-18.193-5.528-30.354-22.3-39.324-22.142-11.876-42.83-26.501-64.088-39.988-4.706-3-10.234-5.148-12.761-11.624,4.454-4.043,8.591-1.895,12.761,0,19.078,8.718,38.819,16.267,57.076,26.501,21.289,11.94,40.904,17.404,60.013-2.874,3.443-3.127,47.474-46.4,69.047-61.529-23.816,39.356-61.498,68.478-80.86,110.708Z"/>
      <path class="cls-1" d="M1210.349,802.67s0-.032,.031-.032v.032h-.031Z"/>
      <path class="cls-1" d="M1014.769,799.007l-.126-.221c-40.967-18.288-82.091-36.324-122.837-55.054-15.667-7.202-28.775-5.749-41.725,5.843-8.812,7.865-68.036,57.865-88.788,71.289-.347,.758-.916,1.264-1.706,1.485-8.465,18.351-2.401,36.955-.663,55.401,.821,8.781,5.685,45.515,6.191,51.959,1.611,21.131,6.886,39.861,25.869,52.117,.853,.253,94.536,61.687,103.349,65.762,7.107,3.253,14.498,5.369,22.394,5.528,5.306-5.528,10.613-11.055,15.951-16.551,7.517-9.539,66.709-81.365,71.605-83.134,.316-.884,.916-1.548,1.737-1.99,2.874-11.718,12.508-97.095,12.761-120.437,.126-10.96,.253-21.699-4.011-31.996Zm-84.682,110.803c-1.611,1.958-2.906,4.169-3.695,6.57-11.718,34.555-10.076,71.131-16.014,106.792-8.402-28.49-11.718-83.197-12.476-97.6-.095-2.211-1.927-5.938-8.244-9.097-13.992-6.981-69.362-42.23-85.756-54.928,15.319,1.105,70.752,28.017,84.65,33.67,4.769,1.927,9.697,3.538,13.613,4.833,2.653,.884,5.496,.632,7.991-.6,19.583-9.855,74.1-58.213,75.49-58.844-1.39,1.706-44.82,56.191-55.56,69.205Z"/>
      <line class="cls-1" x1="1284.386" y1="995.249" x2="1283.849" y2="997.46"/>
    </g>
  </g>
</svg>