<?xml version="1.0" encoding="UTF-8"?>
<svg xmlns="http://www.w3.org/2000/svg" viewBox="0 0 2106.234 2078">
  <defs>
    <style>
      .cls-1 {
        fill: #fff;
      }

      .cls-2 {
        fill: #08568a;
      }

      .cls-3 {
        fill: #08558c;
      }
    </style>
  </defs>
  <g id="cricle">
    <path class="cls-3" d="M1053,275c99.786,0,196.56,19.532,287.636,58.054,43.778,18.517,86.006,41.438,125.51,68.127,39.142,26.444,75.951,56.815,109.405,90.268,33.454,33.454,63.824,70.263,90.268,109.405,26.689,39.505,49.61,81.732,68.127,125.51,38.522,91.075,58.054,187.85,58.054,287.636s-19.532,196.56-58.054,287.636c-18.517,43.778-41.438,86.006-68.127,125.51-26.444,39.142-56.815,75.951-90.268,109.405-33.454,33.454-70.263,63.824-109.405,90.268-39.505,26.689-81.733,49.61-125.51,68.127-91.075,38.522-187.85,58.054-287.636,58.054s-196.56-19.532-287.636-58.054c-43.778-18.517-86.006-41.438-125.51-68.127-39.142-26.444-75.951-56.815-109.405-90.268-33.454-33.454-63.824-70.263-90.268-109.405-26.689-39.505-49.61-81.733-68.127-125.51-38.522-91.075-58.054-187.85-58.054-287.636,0-86.395,14.757-170.992,43.86-251.441,28.127-77.749,68.955-149.858,121.347-214.319,78.829-96.965,181.411-172.879,296.656-219.534,88.028-35.637,181.27-53.706,277.138-53.706m0-50c-104.64,0-204.53,20.37-295.9,57.36-124.52,50.41-233.24,131.69-316.69,234.34-110.3,135.71-176.41,308.79-176.41,497.3,0,435.75,353.25,789,789,789s789-353.25,789-789S1488.75,225,1053,225h0Z"/>
  </g>
  <g id="Layer_43" data-name="Layer 43">
    <g>
      <path class="cls-2" d="M1546.804,607.018c0-9.186-.749-18.436-1.922-27.557-6.287-48.436-48.208-85.895-97.231-85.895-263.255-.195-526.51-.423-789.766,.619-17.883,.065-37.719,7.101-53.159,16.547-32.606,19.935-45.733,52.052-45.667,89.999,.13,137.882,.065,275.731,.065,413.612s.065,275.763-.065,413.612c-.033,34.723,12.28,63.42,39.316,85.537,22.508,18.436,49.185,20.717,76.775,20.717,251.887-.13,503.742-.065,755.596-.13,9.218,0,18.469-.456,27.654-1.14,23.843-1.857,43.355-12.476,59.739-29.609,21.987-23.094,28.892-51.107,28.86-82.084-.163-271.398-.098-542.829-.195-814.228Z"/>
      <path class="cls-2" d="M836.615,1355.611h-122.442c9.87-11.042,18.86-21.107,26.547-29.707-23.062-37.492-47.492-72.801-67.394-110.455-41.205-78.012-59.348-161.92-50.912-249.933,8.371-87.328,42.475-164.982,95.797-234.689,63.778-83.387,147.002-135.08,249.672-154.787,53.68-10.326,107.849-9.967,161.758-.326,6.222,1.107,12.15,3.909,18.241,5.928-.163,1.368-.293,2.703-.456,4.072-28.632,0-57.491-2.183-85.895,.358-113.713,10.195-211.757,52.573-284.33,144.233-34.886,44.104-57.198,94.201-69.022,149.087-29.218,135.764,1.661,257.816,83.811,368.205,2.28,3.029,4.756,5.928,7.362,8.697,1.042,1.107,2.638,1.726,5.505,3.518,7.98-7.264,16.156-14.723,24.43-22.247,7.948,11.629,12.769,87.068,7.329,118.045Z"/>
      <rect class="cls-2" x="846.745" y="810.079" width="116.123" height="42.899"/>
      <rect class="cls-2" x="867.103" y="716.887" width="72.801" height="78.175"/>
      <path class="cls-2" d="M864.4,1088.545c-1.694-.065-3.355-.13-5.016-.228-1.498,5.798-3.029,11.596-4.984,18.958h-40.944v-145.276h40.781c1.661,7.85,3.159,14.918,4.691,22.019,10.358-11.238,5.994-24.625,6.71-37.036,.749-12.964,.163-26.026,.163-39.055v-42.215h74.983v166.513h18.599v-100.325c11.14-1.335,20.065-2.378,28.827-3.388,.945-.814,2.182-1.336,2.508-2.215,14.56-40.977,44.299-55.016,86.351-52.573,43.811,2.573,87.882,.098,131.628,3.029,33.908,2.28,57.394,28.501,58.013,62.931,1.14,59.674,1.368,119.413-.326,179.054-1.238,42.475-25.375,66.351-67.654,67.915-50.944,1.889-101.986,2.182-152.93,1.042-22.182-.489-37.003-16.254-47.654-34.918-3.42-6.059-5.57-12.834-9.316-21.694h-121.66c-1.042-15.83-1.922-29.185-2.769-42.54Z"/>
      <path class="cls-2" d="M1467.978,1137.372c-29.055,98.664-77.882,184.559-161.171,247.653-52.996,40.163-113.321,61.987-179.282,70.716-58.013,7.687-114.364,1.466-170.585-15.407,7.752-.358,15.537-1.433,23.224-1.01,58.013,3.257,114.722-3.551,169.966-21.563,98.631-32.085,173.419-93.485,219.119-186.578,33.322-67.882,43.746-141.204,39.153-216.839-5.375-88.892-38.078-167.132-90.52-237.978-2.834-3.811-6.384-7.166-10.717-11.987-9.088,8.306-17.687,16.124-26.254,23.941-1.466-.293-2.931-.619-4.397-.912-1.726-38.241-3.485-76.449-5.375-117.752h127.23c-10.163,11.075-19.088,20.814-29.055,31.694,6.677,9.739,13.029,19.641,20,29.12,49.478,67.263,80.651,142.442,91.726,224.917,8.208,61.107,4.528,122.246-13.062,181.985Z"/>
    </g>
    <path class="cls-1" d="M1266.709,939.687c-.619-34.43-24.104-60.651-58.013-62.931-43.746-2.932-87.817-.456-131.628-3.029-42.052-2.443-71.791,11.596-86.351,52.573-.326,.879-1.564,1.401-2.508,2.215-8.762,1.01-17.687,2.052-28.827,3.388v100.325h-18.599v-166.513h-74.983v42.215c0,13.029,.586,26.091-.163,39.055-.717,12.41,3.648,25.798-6.71,37.036-1.531-7.101-3.029-14.169-4.691-22.019h-40.781v145.276h40.944c1.955-7.362,3.485-13.16,4.984-18.958,1.661,.098,3.322,.163,5.016,.228,.847,13.355,1.726,26.71,2.769,42.54h121.66c3.746,8.86,5.896,15.635,9.316,21.694,10.651,18.664,25.472,34.43,47.654,34.918,50.944,1.14,101.986,.847,152.93-1.042,42.28-1.563,66.416-25.44,67.654-67.915,1.694-59.641,1.466-119.38,.326-179.054Zm-307.326,172.214h-75.211v-218.793h37.459v160.357c15.049,.749,25.7,1.303,37.752,1.889v56.547Zm72.214,45.472c-24.625-5.537-22.573-26.743-30.977-42.084-5.537-1.107-11.791-2.345-19.642-3.909v-165.178c7.199-1.531,13.844-2.932,21.042-4.462,3.551-16.971,5.668-34.951,29.576-38.567v254.2Zm165.829,1.987h-138.696c-.065-1.922-.163-3.844-.228-5.765,39.707-2.15,79.673,.358,120.553-1.433v-22.964h-121.106v-20.195h121.204v-23.583h-121.4v-20.391h121.237v-24.006h-120.846c-.619-7.817-1.01-12.736-1.596-20.13h122.507v-24.527h-121.041c-.489-7.068-.847-11.987-1.368-19.479h122.442v-24.039h-121.171c-.456-7.817-.749-12.736-1.205-20.163h122.344v-25.472h-119.803c.033-2.475,.033-4.918,.065-7.394,45.602-.521,91.172-.782,138.109,.423v259.118Z"/>
    <path class="cls-1" d="M956.935,1440.336c7.75-.371,15.539-1.434,23.245-1.004,57.999,3.234,114.711-3.563,169.962-21.556,98.609-32.112,173.403-93.483,219.102-186.588,33.324-67.892,43.74-141.223,39.167-216.831-5.377-88.917-38.076-167.135-90.521-237.976-2.843-3.84-6.38-7.166-10.733-11.994-9.085,8.286-17.663,16.11-26.242,23.935-1.463-.306-2.926-.612-4.389-.918-1.754-38.23-3.508-76.461-5.402-117.752h127.251c-10.163,11.083-19.078,20.804-29.067,31.697,6.679,9.752,13.046,19.645,20.001,29.106,49.472,67.293,80.64,142.46,91.724,224.939,8.213,61.115,4.534,122.223-13.059,181.98-29.048,98.668-77.885,184.545-161.178,247.661-53.002,40.163-113.317,61.968-179.271,70.71-58.016,7.69-114.352,1.467-170.59-15.41Z"/>
    <path class="cls-1" d="M1147.442,585.702c-28.65,0-57.494-2.167-85.915,.381-113.715,10.192-211.767,52.551-284.329,144.229-34.898,44.092-57.189,94.199-69.006,149.081-29.229,135.752,1.637,257.817,83.804,368.201,2.264,3.042,4.76,5.93,7.353,8.699,1.05,1.122,2.649,1.73,5.52,3.522,7.968-7.266,16.15-14.727,24.413-22.261,7.943,11.657,12.781,87.069,7.323,118.051h-122.425c9.854-11.019,18.865-21.095,26.549-29.687-23.084-37.515-47.512-72.796-67.408-110.471-41.196-78.005-59.343-161.929-50.908-249.92,8.372-87.335,42.488-164.978,95.803-234.699,63.774-83.399,146.983-135.065,249.674-154.789,53.66-10.306,107.836-9.967,161.748-.319,6.232,1.115,12.162,3.92,18.233,5.941-.143,1.348-.285,2.696-.428,4.043Z"/>
    <path class="cls-1" d="M939.92,716.885v78.169h-72.821v-78.169h72.821Z"/>
    <path class="cls-1" d="M846.742,852.973v-42.887h116.139v42.887h-116.139Z"/>
    <path class="cls-1" d="M1212.54,1194.93h-180.94l-50.33,41.01v48.86h267.1v-48.86l-35.83-41.01Zm-16.29,8.44c7.2,0,13.03,5.83,13.03,13.02s-5.83,13.03-13.03,13.03-13.03-5.83-13.03-13.03,5.84-13.02,13.03-13.02Zm-153.09,0c7.2,0,13.03,5.83,13.03,13.02s-5.83,13.03-13.03,13.03-13.03-5.83-13.03-13.03,5.83-13.02,13.03-13.02Zm179.15,61.88h-211.72v-29.31h211.72v29.31Z"/>
  </g>
</svg>